<svg id="Слой_1" data-name="Слой 1" xmlns="http://www.w3.org/2000/svg" viewBox="0 0 500 500"><defs><style>.cls-1{fill:#fff;}.cls-2,.cls-4{fill:none;stroke-linecap:round;stroke-linejoin:round;stroke-width:4px;}.cls-2{stroke:#000;}.cls-3{fill:#ffc200;}.cls-4{stroke:#ffc200;}</style></defs><title>kazling_logo_more_space</title><circle class="cls-1" cx="249.56" cy="249.48" r="172.52"/><circle class="cls-2" cx="249.88" cy="249.35" r="172.52"/><path d="M214.14,206.92l8.35-7.61c1.67-1.56,3.2-3,4.57-4.21a6.28,6.28,0,0,1,4.2-1.87c.74,0,1.22.19,1.44.56a2,2,0,0,1,.34,1.1,2.7,2.7,0,0,1-1.63,2.3q-1.62,1-4.51,2.91a32.36,32.36,0,0,0-3.59,2.67c-1.16,1-2.5,2.1-4,3.29q3.08,3.67,6.45,7.54t6.26,7.31c.32.41.59.76.79,1.07a1.57,1.57,0,0,1,.31.89,1,1,0,0,1-.46.8,5,5,0,0,1-2.48.36,6.22,6.22,0,0,1-3.1-.55,6.35,6.35,0,0,1-1.57-1.35q-2.58-3.12-5.28-6.47t-5.39-6.54l-.68.74v9.82c0,1.84-.32,3-.95,3.56a4.6,4.6,0,0,1-3,.79,2.17,2.17,0,0,1-2-.76,3.89,3.89,0,0,1-.49-2.12V180.29a3.87,3.87,0,0,1,.49-2.15,2.21,2.21,0,0,1,2-.74,3.66,3.66,0,0,1,3,1.14,6.15,6.15,0,0,1,.95,3.89Z"/><path d="M257,218.21a13.39,13.39,0,0,1-4.63,4.41,12.69,12.69,0,0,1-6.17,1.41c-3.11,0-5.43-.76-7-2.3a8.05,8.05,0,0,1-2.31-6,11.67,11.67,0,0,1,.68-3.89,8.33,8.33,0,0,1,2.39-3.47,12.66,12.66,0,0,1,4.73-2.46,26.83,26.83,0,0,1,7.67-.92h4.48V203.3c0-2.83-.49-4.8-1.45-5.93s-2.52-1.68-4.69-1.68a6,6,0,0,0-3.22.8,9.15,9.15,0,0,0-2.18,1.77,9.51,9.51,0,0,1-1.84,1.57,3.49,3.49,0,0,1-1.9.58,2,2,0,0,1-1.63-.64,2.22,2.22,0,0,1-.52-1.44,2.49,2.49,0,0,1,1-2.06,11.22,11.22,0,0,1,2.39-1.38,20.83,20.83,0,0,1,4.64-1.26,30.22,30.22,0,0,1,4.51-.4,15.62,15.62,0,0,1,7,1.26,6.9,6.9,0,0,1,3.41,3.71,17.22,17.22,0,0,1,1,6.14v16.81a4.2,4.2,0,0,1-.46,2.12A2.08,2.08,0,0,1,261,224a3.14,3.14,0,0,1-2.89-1.38,8.59,8.59,0,0,1-.86-4.38Zm-3.62-10.62a15.61,15.61,0,0,0-6.14,1,6.12,6.12,0,0,0-3.07,2.64,7.91,7.91,0,0,0-.85,3.68q0,2.82,1.47,3.93a6.25,6.25,0,0,0,3.86,1.1,9.53,9.53,0,0,0,3.47-.76,9,9,0,0,0,3.38-2.37,5.79,5.79,0,0,0,1.44-4v-5.16Z"/><path d="M292.8,193.23a2.24,2.24,0,0,1,1.78.59,1.82,1.82,0,0,1,.49,1.19,4,4,0,0,1-.28,1.51,4.92,4.92,0,0,1-.64,1.19l-17.67,23.44H289v-1.47c0-1.68.24-2.75.73-3.22a3.81,3.81,0,0,1,2.64-.71,2.06,2.06,0,0,1,1.81.68,3.32,3.32,0,0,1,.46,1.9v3.8a1.77,1.77,0,0,1-.55,1.48,2.27,2.27,0,0,1-1.41.42H272a2.33,2.33,0,0,1-1.84-.58,1.82,1.82,0,0,1-.49-1.19,4.17,4.17,0,0,1,.27-1.51,4.93,4.93,0,0,1,.65-1.19l17.55-23.44H276.6v1.47c0,1.64-.24,2.7-.74,3.19a3.69,3.69,0,0,1-2.63.74,2,2,0,0,1-1.81-.68,3.32,3.32,0,0,1-.46-1.9v-3.8a1.77,1.77,0,0,1,.55-1.48,2.28,2.28,0,0,1,1.41-.43Z"/><path d="M210.1,310.09c0,1.84-.32,3-.95,3.47a5.05,5.05,0,0,1-3,.71,2.17,2.17,0,0,1-2-.77,3.89,3.89,0,0,1-.49-2.12V270.52a3.87,3.87,0,0,1,.49-2.15,2.21,2.21,0,0,1,2-.73,3.67,3.67,0,0,1,3,1.13,6.19,6.19,0,0,1,.95,3.9Z"/><path d="M219.79,275.67a3.63,3.63,0,0,1,1.14-2.7,3.8,3.8,0,0,1,5.37,5.37,3.83,3.83,0,0,1-6.51-2.67Zm7.12,34.42c0,1.84-.32,3-.95,3.47a5,5,0,0,1-3,.71,2.17,2.17,0,0,1-2-.77,3.89,3.89,0,0,1-.49-2.12v-25a3.87,3.87,0,0,1,.49-2.15,2.21,2.21,0,0,1,2-.73q3.93,0,3.93,4.11Z"/><path d="M237,286.1a2.68,2.68,0,0,1,.65-2.05,2.89,2.89,0,0,1,2-.58,3.13,3.13,0,0,1,2.64,1.28,6.62,6.62,0,0,1,1,4v.43h.13a12.55,12.55,0,0,1,4.23-4.08,12.42,12.42,0,0,1,6.5-1.62q8.66,0,8.65,9.26v18.65a3.89,3.89,0,0,1-.49,2.12,2.16,2.16,0,0,1-2,.77,3.68,3.68,0,0,1-3-1.14,6.13,6.13,0,0,1-.95-3.89V293.9c0-2.42-.51-4.07-1.53-5a5.38,5.38,0,0,0-3.68-1.35,7.68,7.68,0,0,0-3.53.92,8.81,8.81,0,0,0-3,2.51,5.78,5.78,0,0,0-1.22,3.62v15.28c0,1.84-.32,3-1,3.56a4.56,4.56,0,0,1-3,.8,2.19,2.19,0,0,1-2-.77,4,4,0,0,1-.49-2.12Z"/><path d="M283.85,325.31a10.94,10.94,0,0,0,5-1.1,9,9,0,0,0,3.34-2.8,5.9,5.9,0,0,0,1.2-3.46,3.93,3.93,0,0,0-1.69-3.41,11.42,11.42,0,0,0-4.35-1.75,40.82,40.82,0,0,0-5.62-.73,26.48,26.48,0,0,1-7.85-1.6c-2-.82-3-2.16-3-4a3.13,3.13,0,0,1,.77-2.15,6.39,6.39,0,0,1,2-1.44c.8-.39,1.63-.75,2.49-1.1a11.77,11.77,0,0,0,2.33-1.26v-.18a6.37,6.37,0,0,1-3.5-3.1,9.17,9.17,0,0,1-1-4,8.55,8.55,0,0,1,1.78-5.68,10,10,0,0,1,4.6-3.06,18.36,18.36,0,0,1,5.95-.95,22.21,22.21,0,0,1,3.84.42,10,10,0,0,1,3.83,1.48,1.29,1.29,0,0,0,.62-1q.12-.77.27-1.65a2.9,2.9,0,0,1,.77-1.54,2.69,2.69,0,0,1,2-.64,1.93,1.93,0,0,1,1.51.77,2.71,2.71,0,0,1,.64,1.81,3.08,3.08,0,0,1-1.13,2.27,15,15,0,0,1-2.37,1.78,8.47,8.47,0,0,1,1.63,2.54,7.83,7.83,0,0,1,.64,3.1,7.51,7.51,0,0,1-1.71,4.91,11.17,11.17,0,0,1-4.48,3.22,15.63,15.63,0,0,1-6,1.14c-.69,0-1.51,0-2.45-.13a12,12,0,0,1-2.45-.43,20.73,20.73,0,0,1-2.52,1.69,1.81,1.81,0,0,0-1,1.75,1.48,1.48,0,0,0,.49,1,4.23,4.23,0,0,0,2,.92,21,21,0,0,0,4.36.52q7.85.38,11.44,2.86c2.39,1.65,3.59,3.63,3.59,5.92a9.13,9.13,0,0,1-2.12,5.89,14,14,0,0,1-6,4.17,25.87,25.87,0,0,1-9.39,1.54,13.71,13.71,0,0,1-8.1-2.15,6.42,6.42,0,0,1-3-5.4,5.47,5.47,0,0,1,1-3.41,7.8,7.8,0,0,1,2.33-2.11,4.58,4.58,0,0,1,2-.74,1.39,1.39,0,0,1,1,.37,1.19,1.19,0,0,1,.37.86,1.49,1.49,0,0,1-.52.95,7,7,0,0,0-1,1.35,4.91,4.91,0,0,0,1.84,6.32A10.24,10.24,0,0,0,283.85,325.31Zm8.34-32.64a7.51,7.51,0,0,0-1.53-4.85,5.34,5.34,0,0,0-4.42-1.9,5.52,5.52,0,0,0-4.39,1.87,7.58,7.58,0,0,0-1.62,5.12,7.27,7.27,0,0,0,1.56,4.82,5.48,5.48,0,0,0,4.45,1.87,5.38,5.38,0,0,0,4.33-1.93A7.53,7.53,0,0,0,292.19,292.67Z"/><path class="cls-3" d="M243,111.22c0,1.93,1.36,3.87,2.41,5.44a1,1,0,0,1-1.38,1.48,11.44,11.44,0,0,0-6.06-2c-6,0-9.52,2.5-10.59,4.85a1.07,1.07,0,0,0,.94,1.5c12.06.36,16.13,5.87,16.13,12.49,0,6.85-6.48,9.49-12.29,9.49s-8-2.11-8-4.75,1.45-4.21,4.35-4.21a3.55,3.55,0,0,1,3.5,2.34,1.07,1.07,0,0,0,1.23.71,3.89,3.89,0,0,0,3.26-3.58c0-3.69-5-8.36-12.34-7.77a12.43,12.43,0,0,0-11.66,12.51c0,9.74,8.72,15.82,20.41,15.82,13.07,0,13.39-4.22,17-4.22h.37c3.63,0,4.62,4.22,17.69,4.22,11.59,0,19.74-5.36,19.74-15.82A12.43,12.43,0,0,0,276,127.17c-7.35-.59-12.33,4.08-12.33,7.77a3.88,3.88,0,0,0,3.25,3.58,1.07,1.07,0,0,0,1.23-.71,3.55,3.55,0,0,1,3.5-2.34c2.9,0,4.35,1.58,4.35,4.21s-1.54,4.75-7.35,4.75-13-2.64-13-9.49c0-6.62,4.07-12.13,16.13-12.49a1.06,1.06,0,0,0,.94-1.5c-1.07-2.35-4.61-4.85-10.58-4.85a11.45,11.45,0,0,0-6.07,2,1,1,0,0,1-1.38-1.48c1.05-1.57,2.41-3.51,2.41-5.44,0-2.94-6.11-8.16-7-8.88a.15.15,0,0,0-.2,0C249.07,103.06,243,108.28,243,111.22Z"/><path class="cls-3" d="M256.81,388.94c0-1.94-1.36-3.87-2.41-5.45a1,1,0,0,1,1.38-1.48,11.36,11.36,0,0,0,6.07,2c6,0,9.51-2.49,10.58-4.85a1.05,1.05,0,0,0-.94-1.49c-12.06-.37-16.13-5.87-16.13-12.5,0-6.85,6.49-9.49,12.29-9.49s8,2.11,8,4.75-1.45,4.22-4.35,4.22a3.56,3.56,0,0,1-3.5-2.34,1.06,1.06,0,0,0-1.23-.72,3.9,3.9,0,0,0-3.26,3.58c0,3.69,5,8.36,12.34,7.77a12.43,12.43,0,0,0,11.66-12.51c0-9.73-8.72-15.82-20.41-15.82-13.07,0-13.38,4.22-17,4.22h-.37c-3.63,0-4.62-4.22-17.68-4.22-11.6,0-19.74,5.36-19.74,15.82A12.43,12.43,0,0,0,223.79,373c7.35.59,12.34-4.08,12.34-7.77a3.9,3.9,0,0,0-3.26-3.58,1.07,1.07,0,0,0-1.23.72,3.56,3.56,0,0,1-3.5,2.34c-2.9,0-4.35-1.59-4.35-4.22s1.54-4.75,7.35-4.75,13,2.64,13,9.49c0,6.63-4.07,12.13-16.13,12.5a1.05,1.05,0,0,0-.94,1.49c1.07,2.36,4.62,4.85,10.58,4.85a11.36,11.36,0,0,0,6.07-2,1,1,0,0,1,1.38,1.48c-1,1.58-2.41,3.51-2.41,5.45,0,2.94,6.12,8.16,7,8.88a.15.15,0,0,0,.2,0C250.7,397.1,256.81,391.88,256.81,388.94Z"/><line class="cls-2" x1="104.77" y1="238.53" x2="104.77" y2="260.18"/><line class="cls-4" x1="112.61" y1="207.73" x2="112.61" y2="290.98"/><line class="cls-4" x1="128.3" y1="215.68" x2="128.3" y2="283.03"/><line class="cls-4" x1="143.99" y1="210.15" x2="143.99" y2="288.56"/><line class="cls-4" x1="159.68" y1="175.91" x2="159.68" y2="322.8"/><line class="cls-4" x1="175.36" y1="131.57" x2="175.36" y2="367.14"/><line class="cls-4" x1="120.46" y1="198.19" x2="120.46" y2="300.52"/><line class="cls-4" x1="136.14" y1="207.96" x2="136.14" y2="290.75"/><line class="cls-4" x1="151.83" y1="164.58" x2="151.83" y2="334.13"/><line class="cls-4" x1="167.52" y1="162.55" x2="167.52" y2="336.16"/><line class="cls-2" x1="395.02" y1="238.53" x2="395.02" y2="260.18"/><line class="cls-4" x1="387.18" y1="218.55" x2="387.18" y2="280.16"/><line class="cls-4" x1="371.51" y1="175.96" x2="371.51" y2="322.75"/><line class="cls-4" x1="355.85" y1="204.57" x2="355.85" y2="294.14"/><line class="cls-4" x1="340.18" y1="178.87" x2="340.18" y2="319.84"/><line class="cls-4" x1="324.51" y1="128.68" x2="324.51" y2="370.03"/><line class="cls-4" x1="379.35" y1="201.38" x2="379.35" y2="297.33"/><line class="cls-4" x1="363.68" y1="212.68" x2="363.68" y2="286.03"/><line class="cls-4" x1="348.01" y1="169.62" x2="348.01" y2="329.09"/><line class="cls-4" x1="332.35" y1="156.11" x2="332.35" y2="342.6"/><line class="cls-2" x1="395.02" y1="249.35" x2="104.74" y2="249.35"/></svg>